<svg width="1200" height="360" viewBox="0 0 1200 360" fill="none" xmlns="http://www.w3.org/2000/svg">
  <defs>
    <linearGradient id="bg" x1="0" y1="0" x2="1200" y2="360" gradientUnits="userSpaceOnUse">
      <stop stop-color="#0A0A0A"/>
      <stop offset="0.6" stop-color="#151515"/>
      <stop offset="1" stop-color="#1A1012"/>
    </linearGradient>
    <linearGradient id="accent" x1="170" y1="60" x2="290" y2="240" gradientUnits="userSpaceOnUse">
      <stop stop-color="#8E191E"/>
      <stop offset="1" stop-color="#C9A84C"/>
    </linearGradient>
    <filter id="glow" x="90" y="20" width="280" height="280" filterUnits="userSpaceOnUse" color-interpolation-filters="sRGB">
      <feGaussianBlur stdDeviation="14" result="blur"/>
      <feMerge>
        <feMergeNode in="blur"/>
        <feMergeNode in="SourceGraphic"/>
      </feMerge>
    </filter>
  </defs>

  <rect x="0" y="0" width="1200" height="360" rx="24" fill="url(#bg)"/>

  <g filter="url(#glow)">
    <circle cx="220" cy="180" r="92" fill="#8E191E" fill-opacity="0.18"/>
  </g>

  <g>
    <path d="M220 72C159.248 72 110 121.248 110 182C110 242.752 159.248 292 220 292C247.315 292 272.301 282.039 291.53 265.542L328 302L344 286L307.531 249.54C319.784 230.4 326 206.968 326 182C326 121.248 276.752 72 220 72ZM220 96C263.497 96 298 130.503 298 174C298 217.497 263.497 252 220 252C176.503 252 142 217.497 142 174C142 130.503 176.503 96 220 96Z" fill="url(#accent)"/>
    <circle cx="220" cy="174" r="28" fill="#C9A84C"/>
  </g>

  <text x="390" y="170" fill="#F5F5F3" font-family="Georgia, 'Times New Roman', serif" font-size="84" font-weight="700" letter-spacing="1.8">TUKOPAMOJA</text>
  <text x="392" y="218" fill="#636366" font-family="Inter, Arial, sans-serif" font-size="26" font-weight="500" letter-spacing="3.4">ENS FUTURE EDITION</text>
  <rect x="390" y="236" width="320" height="2" fill="#8E191E" fill-opacity="0.7"/>
</svg>
