<svg width="640" height="640" viewBox="0 0 640 640" fill="none" xmlns="http://www.w3.org/2000/svg">
  <defs>
    <linearGradient id="mark" x1="154" y1="144" x2="470" y2="486" gradientUnits="userSpaceOnUse">
      <stop stop-color="#B22229"/>
      <stop offset="1" stop-color="#E0C071"/>
    </linearGradient>
    <filter id="softGlow" x="20" y="20" width="600" height="600" filterUnits="userSpaceOnUse" color-interpolation-filters="sRGB">
      <feGaussianBlur stdDeviation="18" result="blur"/>
      <feMerge>
        <feMergeNode in="blur"/>
        <feMergeNode in="SourceGraphic"/>
      </feMerge>
    </filter>
  </defs>

  <g filter="url(#softGlow)">
    <path d="M320 106C203.466 106 109 200.466 109 317C109 433.534 203.466 528 320 528C369.938 528 415.761 510.628 451.845 481.236L528 557L561 524L485.665 448.665C514.625 412.58 530 366.757 530 317C530 200.466 435.534 106 320 106ZM320 160C405.605 160 475 229.395 475 315C475 400.605 405.605 470 320 470C234.395 470 165 400.605 165 315C165 229.395 234.395 160 320 160Z" fill="url(#mark)" fill-opacity="0.92"/>
    <circle cx="320" cy="315" r="56" fill="#E0C071" fill-opacity="0.95"/>
  </g>
</svg>
